<?xml version="1.0" encoding="utf-8"?>
<svg viewBox="0 0 699 888.9" xmlns="http://www.w3.org/2000/svg">
  <defs>
    <linearGradient id="gradient_1" gradientUnits="userSpaceOnUse" x1="425.07697" y1="443.8158" x2="422.98911" y2="417.13992" gradientTransform="matrix(0.997711, 0, 0, 0.997711, -382.626526, -506.538239)">
      <stop offset="0" stop-color="#FFE58F"/>
      <stop offset="1" stop-color="#FFFBC1"/>
    </linearGradient>
  </defs>
  <g transform="matrix(1, 0, 0, 1, 221.59103393554688, 444.2261047363281)">
    <path d="M 323.215 -443.427 C 323.371 -443.271 323.562 -443.141 323.685 -442.957 C 325.861 -439.721 330.905 -417.086 332.294 -411.814 C 350.427 -343.01 357.738 -265.299 335.562 -196.512 C 354.478 -177.323 374.754 -149.533 390.473 -127.139 C 397.116 -117.675 403.176 -107.782 410.053 -98.484 C 427.205 -75.294 449.485 -59.115 476.387 -48.978 C 455.693 -43.258 435.447 -44.028 414.469 -46.93 C 421.447 -28.687 426.21 -11.194 427.465 8.373 C 428.556 25.373 426.972 42.487 427.821 59.483 C 429.102 85.135 442.076 107.048 458.889 125.725 C 440.935 120.39 422.184 108.263 407.743 96.401 C 407.979 106.237 410.164 116.054 410.638 125.912 C 412.373 161.988 407.606 195.448 389.449 227.236 C 384.854 235.278 379.432 242.725 374.289 250.413 L 374.54 249.779 C 385.221 222.108 374.455 190.217 363.044 164.468 C 363.314 166.726 363.525 168.99 363.678 171.259 C 363.83 173.528 363.924 175.799 363.959 178.073 C 363.994 180.347 363.97 182.621 363.887 184.894 C 363.805 187.167 363.664 189.436 363.464 191.702 C 363.265 193.968 363.007 196.226 362.69 198.479 C 362.373 200.731 361.999 202.973 361.566 205.206 C 361.133 207.439 360.643 209.659 360.096 211.866 C 359.549 214.073 358.945 216.265 358.284 218.442 C 348.724 250.232 329.205 277.142 303.587 297.951 C 298.264 302.275 292.628 306.916 286.586 310.175 C 295.259 296.013 301.697 282.462 307.22 266.802 C 296.346 283.282 281.297 296.546 266.285 309.122 C 237.385 333.335 216.046 352.193 200.023 387.245 C 197.006 365.735 202.745 345.313 209.944 325.265 C 203.017 332.581 194.806 338.511 187.887 345.888 C 185.459 348.455 183.083 351.068 180.757 353.727 C 178.432 356.387 176.16 359.09 173.94 361.839 C 171.72 364.586 169.555 367.377 167.444 370.21 C 165.333 373.042 163.278 375.915 161.279 378.828 C 159.28 381.74 157.339 384.691 155.456 387.68 C 153.572 390.669 151.747 393.693 149.982 396.753 C 148.217 399.813 146.512 402.906 144.867 406.032 C 143.222 409.159 141.639 412.317 140.118 415.505 C 135.694 424.821 132.175 434.534 127.87 443.904 C 123.325 433.582 119.549 422.873 114.708 412.693 C 104.163 390.517 90.22 368.976 73.41 351.025 C 64.316 341.314 54.386 332.505 44.639 323.471 C 52.528 344.217 55.694 365.661 55.425 387.794 C 46.013 369.5 39.082 357.133 25.493 341.093 C 9.997 324.701 -7.162 312.64 -22.97 297.284 C -32.684 287.848 -40.81 276.998 -48.707 266.047 C -44.042 281.643 -37.625 295.922 -29.451 309.985 C -32.933 308.05 -36.319 305.96 -39.608 303.714 C -42.897 301.467 -46.076 299.074 -49.144 296.535 C -78.359 272.203 -99.978 239.239 -107.026 201.595 C -109.065 190.706 -109.276 179.755 -110.3 168.764 C -116.021 189.573 -120.643 211.655 -120.628 233.338 C -120.624 239.141 -119.961 245 -119.469 250.78 C -122.394 247.134 -124.919 242.939 -127.378 238.958 C -154.775 194.601 -161.78 142.426 -149.837 91.857 C -153.774 95.406 -157.358 99.278 -161.425 102.702 C -174.021 113.306 -188.568 119.908 -203.866 125.545 C -193.566 114.618 -185.521 103.147 -179.783 89.199 C -176.7 81.708 -174.202 73.993 -172.955 65.973 C -171.574 57.091 -171.885 48.086 -171.902 39.128 C -171.932 23.606 -172.318 7.871 -170.564 -7.576 C -168.789 -23.201 -164.071 -37.293 -158.418 -51.838 C -177.951 -43.673 -200.249 -43.849 -220.573 -48.597 C -164.258 -69.286 -155.925 -99.231 -124.344 -143.04 C -110.924 -161.655 -96.02 -177.983 -80.221 -194.564 C -101.812 -262.841 -95.12 -375.074 -66.568 -440.771 C -56.003 -435.359 -45.873 -427.65 -36.506 -420.389 C -0.952 -392.831 28.611 -360.326 53.584 -322.975 C 85.25 -314.574 100.79 -307.538 128.691 -290.896 C 150.442 -306.057 176.025 -315.516 201.418 -322.511 C 228.658 -360.617 265.845 -400.202 302.865 -428.812 C 309.441 -433.895 316.042 -439.204 323.215 -443.427 Z" style="" transform="matrix(0.999997, -0.002297, 0.002297, 0.999997, -0.000159, 0.293803)"/>
    <path d="M -146.064 22.461 C -144.389 24.775 -142.599 27.05 -141.252 29.574 C -137.872 27.894 -133.614 26.415 -129.847 27.805 C -127.037 28.842 -124.854 31.508 -123.736 34.226 C -123.067 35.852 -122.716 37.607 -122.06 39.259 L -120.859 39.589 C -122.719 42 -131.843 47.265 -134.85 49.421 C -138.721 52.16 -142.437 55.095 -145.999 58.226 C -147.117 46.54 -147.855 34.087 -146.064 22.461 Z" style="fill: rgb(98, 98, 98);" transform="matrix(0.999997, -0.002297, 0.002297, 0.999997, -0.093076, -0.307677)"/>
    <path d="M -48.711 -390.631 C -39.482 -385.065 -30.748 -378.748 -22.008 -372.455 C -21.996 -371.778 -21.877 -371.097 -21.97 -370.428 C -22.37 -367.551 -33.352 -352.228 -35.689 -349.81 C -36.552 -348.917 -37.533 -348.275 -38.61 -347.676 L -39.073 -346.602 L -40.294 -347.113 C -42.042 -345.906 -42.515 -343.141 -43.165 -341.166 C -43.881 -341.307 -44.216 -341.577 -44.867 -341.131 C -52.293 -336.036 -63.067 -307.018 -74.684 -306.176 C -74.818 -306.354 -74.946 -306.536 -75.089 -306.708 C -75.683 -307.424 -76.266 -307.809 -77.039 -308.303 C -71.431 -337.689 -62.281 -363.981 -48.711 -390.631 Z" style="fill: rgb(98, 98, 98);" transform="matrix(0.999997, -0.002297, 0.002297, 0.999997, 0.800132, -0.11473)"/>
    <path d="M -88.955 -6.672 C -84.623 -7.083 -80.181 -6.127 -75.966 -5.19 C -55.947 -0.741 -36.549 9.884 -20.852 22.921 C 7.716 46.65 27.239 80.793 40.823 114.914 C 44.269 123.568 49.166 140.765 53.644 147.606 C 58.395 154.867 74.038 163.973 81.33 170.188 C 89.612 177.248 97.157 186.5 106.494 192.184 C 113.555 196.482 121.27 198.685 128.819 201.725 C 127.136 205.528 128.449 387.725 128.944 406.944 C 125.385 403.51 120.814 389.85 118.569 384.699 C 111.53 368.545 103.553 353.281 94.919 337.941 C 85.93 321.971 76.735 306.074 65.699 291.406 C 51.181 272.107 34.252 253.965 22.387 232.831 C 16.466 222.288 13.327 211.469 8.821 200.413 C 11.606 228.245 20.905 256.611 38.687 278.47 C 24.888 274.312 11.868 263.606 1.944 253.475 C -17.331 233.798 -30.883 206.079 -35.222 178.953 C -37.158 166.857 -37.326 154.789 -37.234 142.567 C -48.028 166.031 -48.968 191.803 -46.627 217.05 C -61.897 198.264 -69.651 175.558 -73.011 151.822 C -77.088 123.016 -73.811 88.342 -55.901 64.538 C -84.272 82.497 -105.074 103.184 -120.594 133.15 C -124.743 141.16 -128.126 149.546 -131.982 157.697 C -132.019 156.591 -132.049 155.486 -132.07 154.379 C -132.875 112.573 -125.071 75.692 -97.929 42.494 C -93.138 36.636 -87.473 31.505 -82.224 26.061 L -79.849 28.742 C -72.125 28.513 -64.807 30.784 -57.082 29.557 C -48.151 28.138 -41.983 22.096 -34.196 21.089 C -31.306 20.715 -28.071 21.235 -25.171 21.472 C -36.375 10.596 -55.922 2.239 -70.755 -2.124 C -76.772 -3.894 -82.927 -4.987 -88.955 -6.672 Z" style="fill: rgb(98, 98, 98);" transform="matrix(0.999997, -0.002297, 0.002297, 0.999997, -0.459605, -0.003046)"/>
    <path d="M -21.442 -372.59 C 33.701 -331.037 74.58 -275.541 94.751 -209.171 C 94.027 -234.027 77.672 -276.602 63.977 -297.524 C 82.328 -291.828 99.754 -280.045 113.643 -266.8 C 118.255 -262.401 122.616 -256.671 127.889 -253.112 C 127.45 -226.455 127.407 -199.798 127.76 -173.141 L 127.877 -86.533 L 128.261 51.664 C 128.328 66.369 127.719 81.138 128.014 95.827 C 128.032 96.719 128.084 97.046 128.593 97.768 L 129.12 98.123 C 140.08 98.57 152.888 100.243 160.842 108.672 C 164.051 112.073 165.698 116.213 165.519 120.897 C 165.155 130.473 158.933 140.433 151.944 146.666 C 145.183 152.695 137.525 155.162 128.937 157.561 C 128.618 158.787 128.158 160.088 128.046 161.347 C 116.051 162.712 102.839 171.534 90.71 167.97 C 80.572 164.992 60.282 152.03 55.489 142.27 C 50.988 133.102 51.218 120.57 49.735 110.509 C 46.707 89.983 40.608 69.397 30.336 51.293 C 10.838 16.928 -23.361 -4.794 -60.667 -15.104 C -43.644 -22.258 -22.382 -24.324 -4.039 -22.644 C -28.783 -35.295 -59.633 -31.122 -85.567 -24.836 C -74.573 -40.978 -57.818 -54.682 -41.534 -65.202 C -35.386 -69.173 -28.864 -72.624 -22.839 -76.76 L -24.791 -76.096 C -52.754 -66.608 -81.098 -47.288 -101.681 -26.316 C -107.129 -20.765 -111.23 -13.863 -116.662 -8.365 L -117.196 -7.831 L -117.196 -7.342 C -108.007 -6.7 -98.818 -7.748 -89.649 -6.698 C -83.62 -5.013 -77.465 -3.921 -71.448 -2.151 C -56.615 2.212 -37.069 10.57 -25.865 21.446 C -28.764 21.208 -32 20.689 -34.89 21.063 C -42.676 22.07 -48.845 28.112 -57.776 29.53 C -65.501 30.758 -72.819 28.487 -80.542 28.715 L -82.918 26.034 C -98.827 29.053 -106.774 31.408 -121.185 39.259 L -122.386 38.929 C -123.042 37.277 -123.393 35.522 -124.063 33.895 C -125.18 31.178 -127.363 28.512 -130.174 27.475 C -133.94 26.085 -138.198 27.564 -141.578 29.244 C -142.925 26.72 -144.715 24.445 -146.39 22.13 C -144.84 6.556 -141.589 -7.853 -136.898 -22.763 C -135.46 -27.33 -134.144 -32.035 -132.239 -36.432 C -114.765 -76.754 -86.985 -99.138 -47.028 -114.991 C -62.691 -111.351 -77.916 -105.895 -93.016 -100.45 C -110.209 -94.252 -126.849 -88.076 -143.325 -80.107 C -118.361 -115.324 -98.89 -140.14 -65.651 -168.043 C -69.52 -178.908 -72.058 -189.918 -74.318 -201.209 C -81.529 -237.232 -81.788 -272.155 -76.473 -308.438 C -75.7 -307.944 -75.117 -307.559 -74.522 -306.843 C -74.38 -306.671 -74.252 -306.489 -74.117 -306.311 C -62.501 -307.153 -51.727 -336.172 -44.301 -341.266 C -43.649 -341.712 -43.315 -341.442 -42.598 -341.301 C -41.949 -343.276 -41.475 -346.041 -39.727 -347.248 L -38.507 -346.737 L -38.044 -347.811 C -36.966 -348.41 -35.986 -349.052 -35.123 -349.945 C -32.786 -352.363 -21.803 -367.686 -21.403 -370.563 C -21.31 -371.232 -21.429 -371.913 -21.442 -372.59 Z" style="fill: rgb(98, 98, 98);" transform="matrix(0.999997, -0.002297, 0.002297, 0.999997, 0.234068, 0.021675)"/>
    <path d="M -0.943 -160.265 C 10.453 -158.815 21.419 -156.512 32.012 -151.916 C 64.998 -137.606 82.417 -107.226 94.872 -75.297 C 92.615 -76.405 80.371 -95.203 77.594 -98.746 C 71.738 -106.222 65.348 -113.593 58.487 -120.157 C 47.751 -130.428 35.625 -140.703 22.652 -148.024 C 15.108 -152.284 6.897 -155.482 -0.487 -159.982 L -0.943 -160.265 Z" style="" transform="matrix(0.999997, -0.002297, 0.002297, 0.999997, 0.270686, 0.107519)"/>
    <path d="M 129.647 97.851 C 140.608 98.298 153.415 99.971 161.369 108.4 C 164.579 111.801 166.225 115.94 166.046 120.625 C 165.682 130.201 159.461 140.161 152.472 146.394 C 145.71 152.423 138.053 154.89 129.464 157.289 C 119.861 156.096 111.136 153.175 103.826 146.589 C 96.713 140.18 90.683 129.337 90.438 119.621 C 90.325 115.157 91.894 111.076 95.022 107.875 C 103.552 99.149 118.217 98.003 129.647 97.851 Z" style="" transform="matrix(0.999997, -0.002297, 0.002297, 0.999997, -0.292638, 0.294968)"/>
    <path d="M -21.774 -119.501 C -11.163 -117.226 -1.042 -111.032 9.282 -107.556 C 19.488 -104.12 30.775 -103.065 40.538 -98.522 C 45.638 -96.148 49.842 -92.727 53.688 -88.652 C 70.353 -70.999 85.856 -30.021 85.276 -5.513 C 83.122 -7.401 81.348 -12.441 79.871 -15.121 C 76.017 -22.117 71.235 -29.427 65.01 -34.553 C 50.17 -46.767 29.958 -48.365 16.931 -63.099 C 7.73 -73.506 4.227 -86.674 -2.806 -98.269 C -7.837 -106.564 -14.729 -112.968 -21.774 -119.501 Z" style="" transform="matrix(0.999997, -0.002297, 0.002297, 0.999997, 0.143675, 0.07276)"/>
    <path fill="#FECC52" d="M 20.344 -90.075 L 26.965 -90.205 C 25.715 -87.239 24.597 -84.032 23.058 -81.215 C 22.136 -84.163 21.231 -87.116 20.344 -90.075 Z" style="" transform="matrix(0.999997, -0.002297, 0.002297, 0.999997, 0.196948, 0.054074)"/>
    <path fill="url(#gradient_1)" d="M 26.986 -90.244 C 30.553 -90.055 34.123 -89.954 37.695 -89.942 C 35.705 -86.479 33.879 -83.259 34.971 -79.116 C 35.566 -76.859 37.109 -75.005 39.153 -73.899 C 42.152 -72.277 46.146 -72.225 49.354 -73.218 C 50.67 -73.626 51.983 -74.287 53.19 -74.947 L 57.554 -70.25 L 58.351 -64.37 C 49.505 -63.055 40.673 -61.62 32.877 -67.339 C 28.044 -70.883 25.421 -75.917 23.079 -81.254 C 24.617 -84.072 25.736 -87.278 26.986 -90.244 Z" style="" transform="matrix(0.999997, -0.002297, 0.002297, 0.999997, 0.176336, 0.093289)"/>
    <path d="M -42.969 -341.27 C -42.319 -343.246 -41.845 -346.01 -40.098 -347.218 L -38.877 -346.707 C -32.648 -342.428 -27.13 -337.191 -21.553 -332.11 C 3.115 -309.639 21.709 -283.981 35.831 -253.727 C 40.713 -243.268 44.147 -232.304 48.686 -221.744 C 48.539 -221.82 48.392 -221.896 48.246 -221.975 C 41.404 -225.659 35.272 -230.738 28.507 -234.638 C 16.798 -241.388 3.625 -245.07 -9.243 -248.921 C -3.734 -234.618 0.296 -220.084 4.158 -205.258 C -8.654 -215.747 -18.645 -230.095 -28.64 -243.185 C -29.064 -241.9 -29.467 -240.607 -29.849 -239.308 C -30.23 -238.009 -30.59 -236.703 -30.93 -235.392 C -31.268 -234.081 -31.585 -232.765 -31.88 -231.444 C -32.176 -230.123 -32.45 -228.797 -32.701 -227.466 C -32.954 -226.136 -33.184 -224.802 -33.392 -223.464 C -33.6 -222.126 -33.786 -220.785 -33.95 -219.441 C -34.114 -218.097 -34.256 -216.75 -34.376 -215.401 C -34.495 -214.052 -34.593 -212.702 -34.668 -211.35 C -34.744 -209.998 -34.797 -208.645 -34.828 -207.292 C -34.858 -205.938 -34.867 -204.584 -34.854 -203.23 C -34.84 -201.876 -34.804 -200.523 -34.746 -199.17 C -34.688 -197.817 -34.608 -196.466 -34.505 -195.116 C -34.402 -193.765 -34.278 -192.417 -34.131 -191.071 C -33.984 -189.725 -33.815 -188.382 -33.624 -187.041 C -33.433 -185.701 -33.22 -184.364 -32.985 -183.03 C -32.75 -181.697 -32.493 -180.367 -32.215 -179.042 C -37.168 -187.236 -41.952 -195.769 -45.477 -204.689 C -59.529 -240.244 -58.939 -281.342 -49.931 -318.004 C -47.995 -325.88 -45.48 -333.564 -42.969 -341.27 Z" style="" transform="matrix(0.999997, -0.002297, 0.002297, 0.999997, 0.604398, -0.009674)"/>
    <path fill="#FEFEFE" d="M 163.612 -217.282 L 163.879 -217.892 C 166.537 -224.06 168.5 -230.547 170.879 -236.832 C 173.976 -245.007 177.721 -253.031 181.76 -260.78 C 205.483 -306.292 241.417 -345.932 282.422 -376.5 C 289.682 -381.912 297.011 -387.807 304.916 -392.242 C 336.932 -332.02 349.115 -258.78 329.056 -192.6 C 327.451 -187.303 325.402 -182.131 323.226 -177.046 C 336.991 -158.636 351.567 -140.841 365.335 -122.419 C 374.361 -110.343 382.367 -97.596 391.66 -85.704 C 367.408 -93.044 343.615 -101.65 319.422 -109.149 C 358.23 -84.602 388.878 -54.63 399.238 -8.081 C 403.801 12.422 402.66 33.44 400.576 54.168 C 380.623 41.132 365.469 34.202 341.419 31.047 C 367.439 51.325 382.72 83.63 386.695 115.943 C 388.451 130.223 388.123 144.183 387.09 158.493 C 374.584 126.086 356.478 90.477 324.4 73.609 C 326.964 81.398 329.564 89.206 331.256 97.242 C 338.182 130.132 333.05 163.206 318.006 193.117 C 315.224 198.647 312.136 204.095 308.598 209.18 C 308.312 185.081 306.453 162.454 294.47 140.898 C 297.081 175.82 284.823 219.277 261.604 246.091 C 249.221 260.393 235.058 269.801 218.512 278.558 C 235.069 256.077 244.004 230.616 248.867 203.315 C 245.526 207.779 244.106 214.77 241.922 220.025 C 239.057 226.918 235.739 233.738 231.667 239.997 C 222.45 254.162 211.251 266.965 201.221 280.551 C 172.717 319.159 143.931 363.783 129.42 409.901 L 129.137 410.035 L 128.505 406.612 C 128.01 387.393 126.697 205.196 128.38 201.393 C 120.831 198.353 113.116 196.15 106.055 191.852 C 96.718 186.168 89.174 176.916 80.892 169.856 C 73.599 163.641 57.956 154.535 53.205 147.274 C 48.727 140.433 43.83 123.236 40.385 114.582 C 26.8 80.461 7.278 46.318 -21.291 22.589 C -36.988 9.552 -56.385 -1.073 -76.404 -5.522 C -80.62 -6.459 -85.062 -7.415 -89.394 -7.004 C -98.564 -8.054 -107.753 -7.006 -116.941 -7.648 L -116.941 -8.136 L -116.407 -8.67 C -110.975 -14.169 -106.875 -21.071 -101.426 -26.622 C -80.843 -47.594 -52.499 -66.914 -24.537 -76.402 L -22.584 -77.065 C -28.609 -72.93 -35.131 -69.479 -41.279 -65.508 C -57.563 -54.988 -74.318 -41.283 -85.312 -25.141 C -59.379 -31.428 -28.528 -35.6 -3.784 -22.949 C -22.127 -24.63 -43.389 -22.563 -60.412 -15.41 C -23.106 -5.099 11.093 16.623 30.591 50.988 C 40.862 69.091 46.961 89.677 49.989 110.203 C 51.473 120.264 51.243 132.796 55.744 141.964 C 60.537 151.725 80.827 164.686 90.964 167.664 C 103.094 171.228 116.305 162.406 128.301 161.041 C 128.413 159.782 128.873 158.481 129.192 157.255 C 137.78 154.857 145.437 152.389 152.199 146.36 C 159.188 140.127 165.41 130.167 165.774 120.591 C 165.952 115.907 164.306 111.767 161.097 108.366 C 153.143 99.938 140.335 98.264 129.374 97.817 L 128.848 97.462 C 128.339 96.741 128.287 96.414 128.269 95.522 C 127.974 80.832 128.583 66.063 128.516 51.358 L 128.132 -86.839 L 128.014 -173.446 C 127.662 -200.104 127.705 -226.762 128.144 -253.418 C 144.225 -273.123 168.712 -288.118 191.887 -298.268 C 177.631 -273.787 165.258 -245.997 163.612 -217.282 Z" style="" transform="matrix(0.999997, -0.002297, 0.002297, 0.999997, -0.020001, 0.327877)"/>
    <path d="M 259.326 -159.486 L 260.804 -159.583 C 257.788 -157.655 254.281 -156.485 251.037 -154.979 C 245.221 -152.28 239.381 -149.428 233.79 -146.285 C 205.573 -130.426 182.842 -105.951 164.998 -79.223 L 164.62 -78.893 L 164.16 -79.01 C 166.307 -90.046 184.219 -117.109 191.894 -126.295 C 208.82 -146.553 233.372 -157.082 259.326 -159.486 Z" style="" transform="matrix(0.999997, -0.002297, 0.002297, 0.999997, 0.274536, 0.487709)"/>
    <path d="M 269.913 -114.846 L 270.516 -114.759 C 269.216 -111.139 260.219 -104.235 257.583 -98.979 C 252.16 -88.168 249.527 -75.937 241.968 -66.251 C 229.626 -50.439 209.326 -51.378 195.615 -38.496 C 186.438 -29.875 180.612 -18.449 174.924 -7.412 L 174.669 -7.35 L 174.335 -7.828 C 174.624 -24.825 178.06 -44.091 185.175 -59.588 C 192.428 -75.385 204.009 -90.631 220.266 -97.857 C 227.742 -101.181 235.899 -103.087 243.681 -105.546 C 252.521 -108.337 261.224 -111.622 269.913 -114.846 Z" style="" transform="matrix(0.999997, -0.002297, 0.002297, 0.999997, 0.141018, 0.510726)"/>
    <path d="M 226.702 -88.87 L 233.479 -89.024 C 233.465 -81.993 232.397 -75.103 227.244 -69.823 C 221.697 -64.14 213.335 -63.366 205.813 -63.423 C 202.752 -63.447 199.589 -63.608 196.551 -64 C 199.445 -68.23 202.041 -72.506 204.557 -76.965 L 207.897 -74.09 C 210.305 -73.477 212.65 -72.835 215.14 -72.664 C 218.532 -74.281 220.633 -76.721 223.025 -79.516 C 222.592 -82.115 221.598 -85.36 222.878 -87.775 C 224.128 -88.781 225.177 -88.766 226.702 -88.87 Z" style="" fill="#FECC52" transform="matrix(0.999997, -0.002297, 0.002297, 0.999997, 0.175736, 0.493658)"/>
    <path fill="#FEF191" d="M 207.912 -74.079 C 210.32 -73.466 212.664 -72.824 215.155 -72.653 C 214.282 -70.822 213.143 -69.028 213.255 -66.95 C 213.877 -66.051 214.007 -65.949 215.004 -65.496 C 212.343 -65.407 208.532 -65.111 206.448 -67.197 C 205.856 -67.788 205.546 -68.297 205.519 -69.13 C 205.454 -71.147 206.675 -72.621 207.912 -74.079 Z" style="" transform="matrix(0.999997, -0.002297, 0.002297, 0.999997, 0.160865, 0.482929)"/>
    <path d="M 223.022 -79.53 C 222.589 -82.129 221.596 -85.374 222.876 -87.789 C 224.126 -88.795 225.174 -88.78 226.7 -88.884 C 228.792 -86.675 229.074 -83.939 229 -80.987 C 228.95 -79.367 228.875 -77.748 228.774 -76.13 C 225.23 -70.807 221.354 -67.168 214.987 -65.521 C 213.99 -65.973 213.859 -66.076 213.238 -66.975 C 213.126 -69.052 214.265 -70.847 215.138 -72.678 C 218.53 -74.295 220.631 -76.735 223.022 -79.53 Z" style="" fill="#FFFCB3" transform="matrix(0.999997, -0.002297, 0.002297, 0.999997, 0.178006, 0.507679)"/>
    <path d="M 294.963 -347.907 C 297.776 -345.794 299.478 -336.37 300.325 -332.857 C 310.912 -288.935 318.81 -233.256 294.045 -192.641 C 292.736 -201.867 292.259 -211.211 291.133 -220.463 C 290.178 -228.307 288.551 -236.085 287.722 -243.927 C 283.91 -240.473 280.706 -236.341 277.19 -232.59 C 270.442 -225.39 263.304 -218.839 255.459 -212.838 C 256.019 -215.513 256.801 -218.176 257.489 -220.823 C 260.369 -230.962 263.707 -240.783 267.271 -250.697 C 245.389 -247.409 230.844 -241.672 212.521 -229.193 C 226.85 -272.104 259.482 -319.767 294.963 -347.907 Z" style="" transform="matrix(0.999997, -0.002297, 0.002297, 0.999997, 0.621614, 0.599809)"/>
    <path d="M 277.717 -78.661 C 320.187 -63.591 350.172 -34.157 379.137 -0.805 C 368.049 -4.97 352.062 -12.516 340.32 -11.324 C 333.595 -10.643 326.611 -7.647 320.515 -4.891 C 269.066 18.37 234.779 65.656 215.447 117.331 C 212.065 126.372 208.662 141.974 203.652 149.381 C 198.218 157.414 188.316 160.46 181.003 166.288 C 172.552 173.024 165.707 181.542 157.074 188.025 C 155.005 189.57 152.856 190.993 150.627 192.294 C 148.398 193.596 146.103 194.769 143.742 195.812 C 138.912 198.002 133.642 200.104 128.5 201.42 C 120.951 198.379 113.236 196.177 106.175 191.878 C 96.839 186.194 89.294 176.943 81.012 169.883 C 73.72 163.668 58.077 154.562 53.326 147.301 C 48.848 140.459 43.95 123.263 40.505 114.609 C 26.92 80.488 7.398 46.344 -21.17 22.616 C -36.867 9.579 -56.265 -1.046 -76.284 -5.496 C -80.499 -6.433 -84.941 -7.388 -89.273 -6.977 C -98.443 -8.027 -107.632 -6.979 -116.821 -7.621 L -116.821 -8.11 L -116.286 -8.643 C -110.855 -14.142 -106.754 -21.044 -101.306 -26.595 C -80.723 -47.567 -52.379 -66.887 -24.416 -76.375 L -22.463 -77.039 C -28.489 -72.903 -35.011 -69.452 -41.159 -65.481 C -57.442 -54.961 -74.198 -41.257 -85.192 -25.115 C -59.258 -31.401 -28.408 -35.574 -3.664 -22.923 C -22.007 -24.603 -43.269 -22.537 -60.292 -15.383 C -22.985 -5.073 11.213 16.649 30.712 51.015 C 40.983 69.118 47.082 89.704 50.11 110.23 C 51.594 120.291 51.363 132.823 55.865 141.991 C 60.658 151.751 80.947 164.713 91.085 167.691 C 103.214 171.255 116.426 162.433 128.421 161.068 C 140.828 163.605 157.762 171.936 170.187 167.089 C 176.243 164.728 182.082 160.437 187.497 156.859 C 196.604 150.839 201.51 147.118 203.759 135.98 C 206.087 124.454 206.796 112.565 208.914 100.964 C 216.283 60.577 234.627 29.149 269.144 5.898 C 284.292 -4.304 300.615 -11.742 317.369 -18.87 C 298.354 -22.713 279.529 -23.317 260.566 -18.656 C 291.901 -34.07 313.631 -32.553 346.084 -22.302 C 329.247 -45.622 301.569 -63.382 277.717 -78.661 Z" style="" transform="matrix(0.999997, -0.002297, 0.002297, 0.999997, -0.14059, 0.301457)"/>
    <path d="M 92.409 173.153 C 105.201 172.683 116.532 169.772 128.649 166.01 C 128.496 173.427 127.255 189.698 128.69 195.997 L 129.733 196.537 C 129.237 196.716 128.859 196.697 128.331 196.575 C 118.179 194.227 98.31 181.733 92.409 173.153 Z" style="fill: rgb(98, 98, 98);" transform="matrix(0.999997, -0.002297, 0.002297, 0.999997, -0.416199, 0.255681)"/>
    <path fill="#FEFEFE" d="M 128.649 165.926 C 141.843 168.075 153.5 173.256 167.213 172.999 C 155.885 183.652 144.59 191.497 129.732 196.453 L 128.69 195.914 C 127.255 189.614 128.496 173.343 128.649 165.926 Z" style="" transform="matrix(0.999997, -0.002297, 0.002297, 0.999997, -0.415744, 0.339609)"/>
  </g>
</svg>
